<?xml version="1.0" encoding="iso-8859-1"?>
<!-- Generator: Adobe Illustrator 19.0.0, SVG Export Plug-In . SVG Version: 6.00 Build 0)  -->
<svg version="1.1" id="Capa_1" xmlns="http://www.w3.org/2000/svg" xmlns:xlink="http://www.w3.org/1999/xlink" x="0px" y="0px"
	 viewBox="0 0 489.5 489.5" style="enable-background:new 0 0 489.5 489.5;" xml:space="preserve">
<g>
	<g>
		<path d="M411.5,0H78.1C35.4,0,0,35.4,0,78.1v333.3c0,42.7,35.4,78.1,78.1,78.1h333.3c42.7,0,78.1-35.4,78.1-78.1V78.1
			C489.6,35.4,454.2,0,411.5,0z M449,411.5c0,20.8-16.7,37.5-37.5,37.5H78.1c-20.8,0-37.5-16.7-37.5-37.5V78.1
			c0-20.8,16.7-37.5,37.5-37.5h333.3c20.8,0,37.5,16.7,37.5,37.5v333.4H449z"/>
		<path d="M163.5,113.5c-11.5,0-20.8,9.4-20.8,20.8v220.8c0,11.5,9.4,20.8,20.8,20.8c11.5,0,20.8-9.4,20.8-19.8V134.4
			C184.4,122.9,175,113.5,163.5,113.5z"/>
		<path d="M326.1,113.5c-11.5,0-20.8,9.4-20.8,20.8v220.8c0,11.5,9.4,20.8,20.8,20.8c11.5,0,19.8-9.4,20.8-19.8V134.4
			C346.9,122.9,337.5,113.5,326.1,113.5z"/>
	</g>
</g>
<g>
</g>
<g>
</g>
<g>
</g>
<g>
</g>
<g>
</g>
<g>
</g>
<g>
</g>
<g>
</g>
<g>
</g>
<g>
</g>
<g>
</g>
<g>
</g>
<g>
</g>
<g>
</g>
<g>
</g>
</svg>
