<?xml version="1.0" encoding="iso-8859-1"?>
<!-- Generator: Adobe Illustrator 19.0.0, SVG Export Plug-In . SVG Version: 6.00 Build 0)  -->
<svg version="1.1" id="Layer_1" xmlns="http://www.w3.org/2000/svg" xmlns:xlink="http://www.w3.org/1999/xlink" x="0px" y="0px"
	 viewBox="0 0 297 297" style="enable-background:new 0 0 297 297;" xml:space="preserve">
<g>
	<g>
		<path d="M296.252,144.737c-1.522-3.674-5.108-6.071-9.086-6.071h-30.432c-5.041-66.306-60.606-118.719-128.18-118.719
			C57.669,19.947,0,77.616,0,148.501s57.669,128.553,128.554,128.553c5.431,0,9.834-4.403,9.834-9.834V222.7
			c0-5.431-4.403-9.834-9.834-9.834c-35.49,0-64.365-28.874-64.365-64.365c0-35.491,28.874-64.365,64.365-64.365
			c32.148,0,58.867,23.69,63.615,54.53h-31.893c-3.978,0-7.564,2.396-9.086,6.071c-1.522,3.675-0.68,7.905,2.132,10.718
			l63.446,63.445c3.842,3.84,10.067,3.84,13.908,0l63.445-63.445C296.932,152.642,297.773,148.413,296.252,144.737z
			 M223.721,198.038l-39.703-39.703h18.734c5.431,0,9.834-4.403,9.834-9.834c0-46.336-37.697-84.033-84.033-84.033
			S44.52,102.165,44.52,148.501c0,43.01,32.479,78.577,74.199,83.461v24.984c-55.451-4.984-99.05-51.718-99.05-108.445
			c0-60.039,48.846-108.885,108.885-108.885s108.883,48.846,108.883,108.885c0,5.431,4.403,9.834,9.834,9.834h16.151
			L223.721,198.038z"/>
	</g>
</g>
<g>
</g>
<g>
</g>
<g>
</g>
<g>
</g>
<g>
</g>
<g>
</g>
<g>
</g>
<g>
</g>
<g>
</g>
<g>
</g>
<g>
</g>
<g>
</g>
<g>
</g>
<g>
</g>
<g>
</g>
</svg>
